<svg xmlns="http://www.w3.org/2000/svg" xmlns:xlink="http://www.w3.org/1999/xlink" width="96" zoomAndPan="magnify" viewBox="0 0 72 72" height="96" preserveAspectRatio="xMidYMid meet" version="1.0"><defs><clipPath id="28badb923e"><path d="M 3.039062 35 L 37 35 L 37 53 L 3.039062 53 Z M 3.039062 35 " clip-rule="nonzero"/></clipPath><clipPath id="954bc54b39"><path d="M 3.039062 19 L 37 19 L 37 37 L 3.039062 37 Z M 3.039062 19 " clip-rule="nonzero"/></clipPath><clipPath id="c423fb57cd"><path d="M 36 3.039062 L 53 3.039062 L 53 37 L 36 37 Z M 36 3.039062 " clip-rule="nonzero"/></clipPath><clipPath id="49dc52b794"><path d="M 19 3.039062 L 37 3.039062 L 37 37 L 19 37 Z M 19 3.039062 " clip-rule="nonzero"/></clipPath></defs><path fill="#a01647" d="M 19.324219 64.449219 C 14.34375 61.515625 10.207031 57.3125 7.355469 52.285156 L 36.039062 36.039062 L 19.324219 64.449219 " fill-opacity="1" fill-rule="nonzero"/><path fill="#3d8cce" d="M 68.988281 36.304688 C 68.9375 42.3125 67.289062 47.925781 64.449219 52.75 L 36.039062 36.039062 L 68.988281 36.304688 " fill-opacity="1" fill-rule="nonzero"/><path fill="#742594" d="M 35.769531 68.988281 C 29.761719 68.9375 24.148438 67.289062 19.324219 64.449219 L 36.039062 36.039062 L 35.769531 68.988281 " fill-opacity="1" fill-rule="nonzero"/><g clip-path="url(#28badb923e)"><path fill="#ee2423" d="M 7.355469 52.285156 C 4.59375 47.414062 3.039062 41.773438 3.085938 35.769531 L 36.039062 36.039062 L 7.355469 52.285156 " fill-opacity="1" fill-rule="nonzero"/></g><path fill="#4053ad" d="M 64.449219 52.75 C 61.515625 57.730469 57.3125 61.867188 52.285156 64.71875 L 36.039062 36.039062 L 64.449219 52.75 " fill-opacity="1" fill-rule="nonzero"/><path fill="#3f2c90" d="M 52.285156 64.71875 C 47.414062 67.480469 41.773438 69.035156 35.769531 68.988281 L 36.039062 36.039062 L 52.285156 64.71875 " fill-opacity="1" fill-rule="nonzero"/><path fill="#bedf1e" d="M 52.75 7.625 C 57.730469 10.558594 61.867188 14.761719 64.71875 19.789062 L 36.039062 36.039062 L 52.75 7.625 " fill-opacity="1" fill-rule="nonzero"/><path fill="#57af35" d="M 36.039062 36.039062 L 64.71875 19.789062 C 67.480469 24.660156 69.035156 30.300781 68.988281 36.304688 L 36.039062 36.039062 " fill-opacity="1" fill-rule="nonzero"/><g clip-path="url(#954bc54b39)"><path fill="#f0401e" d="M 3.085938 35.769531 C 3.136719 29.761719 4.785156 24.148438 7.625 19.324219 L 36.039062 36.039062 L 3.085938 35.769531 " fill-opacity="1" fill-rule="nonzero"/></g><g clip-path="url(#c423fb57cd)"><path fill="#ecee26" d="M 36.304688 3.085938 C 42.3125 3.136719 47.925781 4.785156 52.75 7.625 L 36.039062 36.039062 L 36.304688 3.085938 " fill-opacity="1" fill-rule="nonzero"/></g><g clip-path="url(#49dc52b794)"><path fill="#edb10e" d="M 19.789062 7.355469 C 24.660156 4.59375 30.300781 3.039062 36.304688 3.085938 L 36.039062 36.039062 L 19.789062 7.355469 " fill-opacity="1" fill-rule="nonzero"/></g><path fill="#f28913" d="M 7.625 19.324219 C 10.558594 14.34375 14.761719 10.207031 19.789062 7.355469 L 36.039062 36.039062 L 7.625 19.324219 " fill-opacity="1" fill-rule="nonzero"/></svg>